<?xml version="1.0" encoding="UTF-8" standalone="no"?>
<!-- Created with Inkscape (http://www.inkscape.org/) -->

<svg
   width="182.52319mm"
   height="15.468424mm"
   viewBox="0 0 182.52319 15.468424"
   version="1.1"
   id="svg877"
   inkscape:version="1.1.2 (0a00cf5339, 2022-02-04)"
   xmlns:inkscape="http://www.inkscape.org/namespaces/inkscape"
   xmlns:sodipodi="http://sodipodi.sourceforge.net/DTD/sodipodi-0.dtd"
   xmlns="http://www.w3.org/2000/svg"
   xmlns:svg="http://www.w3.org/2000/svg">
  <sodipodi:namedview
     id="namedview879"
     pagecolor="#ffffff"
     bordercolor="#666666"
     borderopacity="1.0"
     inkscape:pageshadow="2"
     inkscape:pageopacity="0.0"
     inkscape:pagecheckerboard="0"
     inkscape:document-units="mm"
     showgrid="false"
     inkscape:zoom="0.51127754"
     inkscape:cx="179.94141"
     inkscape:cy="374.55195"
     inkscape:window-width="1874"
     inkscape:window-height="1016"
     inkscape:window-x="0"
     inkscape:window-y="0"
     inkscape:window-maximized="1"
     inkscape:current-layer="layer1" />
  <defs
     id="defs874" />
  <g
     inkscape:label="Layer 1"
     inkscape:groupmode="layer"
     id="layer1"
     transform="translate(-10.293582,-55.671126)">
    <path
       style="fill:#21201c;fill-opacity:1;stroke-width:0.264583"
       d="M 84.330268,70.717067 82.867715,70.412333 81.618289,69.68012 80.36886,68.947906 80.37596,68.62833 c 0.0039,-0.175766 0.334499,-0.714162 0.734634,-1.196435 l 0.727517,-0.87686 1.54119,0.810714 1.541192,0.810714 h 0.972595 0.972595 l 0.588037,-0.411878 0.588039,-0.411878 V 66.738649 66.12459 l -0.36512,-0.303023 C 87.47582,65.654904 86.300343,65.176745 85.064466,64.758991 83.828587,64.341238 82.514706,63.801098 82.144728,63.55868 l -0.672684,-0.440761 -0.440576,-1.101111 -0.440579,-1.101111 0.161144,-1.07459 0.161147,-1.074589 0.527048,-0.866661 0.527047,-0.86666 1.119013,-0.507973 1.119013,-0.507973 1.208749,-0.0058 1.208748,-0.0058 1.304793,0.397518 c 0.717635,0.218635 1.596149,0.623802 1.952255,0.90037 l 0.647459,0.502851 -0.71736,1.084005 c -0.394549,0.596203 -0.779946,1.084006 -0.85644,1.084006 -0.07649,0 -0.64035,-0.256538 -1.253016,-0.570083 l -1.113938,-0.570083 -1.11491,-0.02523 -1.114906,-0.02523 -0.458983,0.458862 -0.458986,0.458863 0.254198,0.731762 0.254196,0.731763 2.37803,0.80222 c 1.307915,0.441221 2.695191,1.013741 3.082837,1.272265 l 0.704808,0.470045 0.419671,0.884388 0.419669,0.884387 v 0.934977 c 0,1.235159 -0.408805,2.263172 -1.251098,3.146123 l -0.688268,0.721488 -0.816256,0.246171 c -0.448939,0.135394 -1.17344,0.302097 -1.610002,0.370452 l -0.79375,0.124281 z m 50.464402,0.0093 -1.26899,-0.35761 -0.81412,-0.765405 c -0.87021,-0.818132 -1.5427,-2.128448 -1.5427,-3.005865 v -0.537665 h 1.45521 1.4552 v 0.361194 c 0,0.198656 0.24451,0.672036 0.54336,1.051955 l 0.54335,0.690762 1.04415,0.281159 1.04414,0.28116 1.04865,-0.282371 1.04865,-0.282372 0.40656,-0.580448 c 0.22361,-0.319246 0.40656,-0.787443 0.40656,-1.040437 V 66.08041 l -0.55535,-0.51739 -0.55535,-0.51739 -1.89205,-0.440198 c -2.504,-0.582576 -3.31158,-0.887934 -4.3309,-1.637583 l -0.85136,-0.626125 -0.30735,-1.025859 -0.30736,-1.025858 0.17958,-0.957221 0.17958,-0.95722 0.79302,-0.903211 0.79303,-0.90321 1.17572,-0.449009 1.17571,-0.44901 1.95417,0.125411 1.95418,0.125411 0.94549,0.584344 0.94548,0.584345 0.51842,0.846559 c 0.28513,0.465607 0.55903,1.203746 0.60865,1.640309 l 0.0902,0.79375 -1.24277,0.08007 -1.24278,0.08007 -0.40936,-0.791614 c -0.22514,-0.435388 -0.67466,-0.977435 -0.9989,-1.20455 l -0.58955,-0.412937 h -0.98702 c -0.54286,0 -1.28222,0.134508 -1.64304,0.298906 l -0.65602,0.298904 -0.31886,0.769787 -0.31885,0.769786 0.59827,0.636834 0.59828,0.636835 2.426,0.552663 2.426,0.552663 0.85099,0.517518 0.85099,0.517518 0.54148,0.862314 0.54148,0.862314 -0.0992,1.347162 -0.0992,1.347161 -0.61878,0.869004 -0.61879,0.869003 -1.14191,0.50512 -1.14191,0.50512 -1.66059,0.121521 -1.6606,0.121521 z m 12.91065,-0.02196 -1.05834,-0.38916 -0.84397,-0.915827 -0.84397,-0.915826 -0.30964,-1.14574 -0.30964,-1.145739 0.14527,-1.417784 0.14527,-1.417784 0.6882,-1.039941 0.6882,-1.03994 0.84069,-0.511253 0.84069,-0.511253 1.08576,-0.162821 1.08577,-0.16282 1.16222,0.312954 1.16222,0.312953 0.97272,0.972726 0.97273,0.972727 0.29216,1.052368 c 0.16069,0.578802 0.29283,1.439321 0.29364,1.912264 l 10e-4,0.859896 h -3.79977 -3.79976 l 0.127,0.664359 0.127,0.664358 0.81557,0.686257 0.81557,0.686257 1.03112,-0.138302 1.03112,-0.138302 0.58636,-0.550855 0.58636,-0.550856 h 1.10742 1.10743 v 0.376575 c 0,0.536433 -1.25305,1.954959 -2.1254,2.406064 l -0.73944,0.382382 -1.41185,0.140612 -1.41185,0.140612 z m 4.21986,-6.827396 c -0.26754,-0.877947 -0.87422,-1.470886 -1.68779,-1.649576 l -0.72035,-0.158216 -0.75201,0.285913 c -0.86227,0.327833 -1.43598,0.983153 -1.44818,1.65417 l -0.008,0.463021 h 2.39908 2.39908 z m 26.28431,6.96379 c -0.39417,-0.127294 -1.08147,-0.49121 -1.52735,-0.808701 l -0.81068,-0.577257 -0.52812,-1.035205 c -0.29047,-0.569363 -0.5977,-1.542834 -0.68274,-2.163268 l -0.15462,-1.128064 0.29129,-1.081779 c 0.16021,-0.594978 0.55944,-1.476358 0.88717,-1.958622 l 0.59587,-0.876843 0.9661,-0.498437 c 0.53136,-0.27414 1.3691,-0.563834 1.86164,-0.643763 l 0.89555,-0.145327 1.10289,0.296978 1.10289,0.296978 0.84343,0.709699 0.84343,0.7097 0.48571,1.069279 0.4857,1.069279 0.006,1.124479 0.006,1.12448 h -3.70416 -3.70417 v 0.514412 0.514413 l 0.63855,0.742358 0.63855,0.742358 h 1.19222 1.19221 l 0.63369,-0.595312 0.63368,-0.595313 h 1.23119 1.23119 l -0.18991,0.471476 c -0.35832,0.889568 -0.99782,1.593337 -1.96795,2.165729 l -0.97126,0.573053 -1.40347,0.107332 -1.40348,0.107332 -0.71666,-0.231444 z m 4.02395,-6.750598 c 0,-0.210167 -0.28502,-0.713477 -0.63338,-1.118466 l -0.63337,-0.736345 h -1.1145 -1.1145 l -0.63337,0.736345 c -0.34836,0.404989 -0.63338,0.908299 -0.63338,1.118466 v 0.38212 h 2.38125 2.38125 z M 98.094231,70.575085 C 96.820069,70.187503 95.799886,69.525523 94.840928,68.464069 93.674721,67.17322 93.118747,65.915772 92.903154,64.081404 l -0.161568,-1.374703 0.430501,-1.480875 0.430501,-1.480874 0.867024,-1.142057 0.867023,-1.142057 1.414693,-0.763146 1.414692,-0.763146 1.750899,-0.0306 1.750901,-0.0306 0.85989,0.362829 c 0.47295,0.199555 0.8599,0.469999 0.8599,0.600985 0,0.130986 -0.30718,0.70234 -0.68263,1.269675 l -0.68262,1.031517 -0.78968,-0.275284 -0.78969,-0.275284 -0.911452,0.147908 -0.911456,0.147909 -0.822068,0.585364 -0.822068,0.585364 -0.492525,1.084508 -0.492524,1.084509 -0.0058,1.068417 -0.0058,1.068416 0.595313,1.165053 0.595312,1.165052 0.748916,0.544656 0.748917,0.544656 1.785815,-0.0191 1.78581,-0.0191 0.58575,1.017749 0.58574,1.017749 -0.13942,0.225577 c -0.38832,0.628315 -3.765966,1.001895 -5.177198,0.572618 z m 7.145459,-6.993993 v -7.310879 h 1.02239 1.02239 l 0.46506,1.217756 0.46507,1.217756 -0.15494,1.130417 -0.15494,1.130418 0.91644,1.289001 c 1.09636,1.542043 1.12247,1.804963 0.23692,2.385199 l -0.67954,0.445247 0.15847,0.631354 0.15846,0.631354 -0.19954,0.318562 c -0.23261,0.371345 -0.2519,0.492688 -0.30552,1.921637 l -0.0403,1.073909 -0.34001,0.464995 -0.34002,0.464995 -1.11519,0.149579 -1.1152,0.149579 z m 6.35,-0.03484 V 56.27021 l 1.65365,0.0098 1.65364,0.0098 1.68416,2.914162 1.68416,2.914162 0.16792,-0.159788 c 0.0924,-0.08788 0.88767,-1.373919 1.76734,-2.857857 l 1.59941,-2.698067 1.64174,-0.07877 1.64173,-0.07877 v 7.288667 7.288666 h -1.44924 -1.44924 l -0.0721,-4.828646 -0.0721,-4.828645 -1.71979,2.733816 c -0.94588,1.503598 -1.83486,2.740173 -1.9755,2.747944 -0.14064,0.0078 -1.03361,-1.222447 -1.98438,-2.733816 l -1.72866,-2.747944 -0.0721,4.828645 -0.0721,4.828646 h -1.44924 -1.44924 z m 44.71458,1.984375 V 60.23896 h 1.32292 1.32292 v 0.843251 0.843251 l 0.76422,-0.732176 0.76423,-0.732177 1.08786,-0.145912 1.08785,-0.145912 v 1.225463 1.225462 h -1.07036 -1.07036 l -0.64943,0.649432 -0.64943,0.649432 v 3.451609 3.45161 h -1.45521 -1.45521 z m 10.22729,3.517635 c -0.37179,-0.988814 -1.26361,-3.375422 -1.9818,-5.303573 l -1.30582,-3.505729 h 1.49793 1.49793 l 1.29035,3.902112 1.29035,3.902111 1.22324,-3.835965 1.22325,-3.835966 1.51447,-0.07935 c 0.83297,-0.04364 1.51352,-0.04364 1.51235,0 -0.001,0.04364 -0.87643,2.401068 -1.94502,5.238725 l -1.94288,5.159374 -1.59918,0.07805 -1.59918,0.07805 z m 19.93521,-3.517635 V 60.23896 h 1.45521 1.45521 v 0.808504 0.808504 l 0.59572,-0.692572 0.59573,-0.692573 1.12406,-0.150769 1.12407,-0.150769 v 1.225463 1.225462 h -0.91129 -0.91128 l -0.74236,0.637915 -0.74236,0.637915 -0.0872,3.463126 -0.0872,3.463127 h -1.43419 -1.43418 z"
       id="path3459"
       sodipodi:nodetypes="ccccsscccccccccssscccccccccccsscssscccccccsscccsscssccccsscccsscccccsscccsscccccccccccccsscccsscssccccccccccccccccccccccccccccccccccccccsccccccccccccccsscccccscsccccccscsscsscsscccccccccccccccccccccsscccccsscccsscccsssscccccccccssscccccccccccccccccccsssccccccccsscccsscccccccccccccscccccccccscscccccccccccccccccccccccccccsscccccccscscccsccccccccccccccccccccc" />
    <path
       d="m 23.125877,70.75733 c -0.582083,-0.2097 -1.085041,-0.38307 -1.117685,-0.38526 -0.03264,-0.002 -0.241002,-0.35526 -0.46302,-0.7846 l -0.40367,-0.78061 v -0.88031 -0.88031 l 0.412936,-0.58954 c 0.227115,-0.32426 0.738464,-0.75789 1.136331,-0.96364 l 0.723393,-0.37408 1.947025,-0.26981 1.947024,-0.26982 0.397056,-0.39706 0.397056,-0.39705 -0.443801,-0.67733 -0.443802,-0.67733 h -1.165323 -1.165322 l -0.520303,0.66146 -0.520303,0.66146 h -1.236521 -1.236522 l 0.177671,-0.59531 c 0.304426,-1.02002 0.889323,-1.75839 1.742334,-2.1995 l 0.821029,-0.42457 1.359291,-0.13923 1.359292,-0.13924 1.070936,0.2895 1.070934,0.28949 0.781148,0.81459 0.781148,0.81459 0.08435,4.21671 0.08435,4.21672 h -1.34112 -1.341122 v -0.66146 -0.66146 h -0.223576 c -0.122967,0 -0.438471,0.23746 -0.701121,0.52769 L 26.618424,70.6297 25.6659,70.89429 c -1.190097,0.33059 -1.251406,0.32728 -2.540023,-0.13696 z m 3.426784,-1.82205 0.896247,-0.37448 0.28588,-0.53417 c 0.157234,-0.2938 0.28588,-0.85318 0.28588,-1.24307 v -0.70889 l -1.25677,0.18751 c -0.691224,0.10313 -1.65189,0.35211 -2.134812,0.55329 l -0.878042,0.36578 0.08429,0.72739 0.08429,0.72739 0.661458,0.33296 c 0.833955,0.41979 0.888415,0.41886 1.971576,-0.0337 z M 42.047769,70.89091 41.12591,70.67416 40.526415,69.9772 39.926917,69.28024 v -1.32079 -1.3208 l 0.680947,-0.63108 0.680945,-0.63108 1.316453,-0.28233 c 0.724048,-0.15528 1.600496,-0.28233 1.947661,-0.28233 0.347168,0 0.93662,-0.11611 1.309894,-0.25803 L 46.5415,64.29576 v -0.51681 -0.51682 l -0.415774,-0.41577 -0.415774,-0.41578 h -0.924537 c -0.508494,0 -1.154834,0.12325 -1.436309,0.27389 l -0.511773,0.2739 v 0.38756 0.38757 H 41.514417 40.1915 v -0.51996 -0.51996 l 0.781045,-0.88956 0.781044,-0.88956 1.03559,-0.31027 c 0.569574,-0.17065 1.557557,-0.30766 2.195518,-0.30446 l 1.159928,0.006 1.089422,0.49472 1.089422,0.49473 0.431932,0.61667 0.431932,0.61667 v 4.17446 4.17446 H 47.864417 46.5415 v -0.70758 -0.70758 l -0.619091,0.58161 c -0.573577,0.53885 -2.066581,1.13409 -2.686454,1.07105 -0.146482,-0.0149 -0.681165,-0.12462 -1.188186,-0.24384 z m 3.136919,-1.87357 0.838816,-0.29242 0.258998,-0.48394 c 0.142449,-0.26617 0.258998,-0.85625 0.258998,-1.3113 v -0.82735 l -1.256771,0.18456 c -1.588116,0.23323 -2.247667,0.47902 -2.678567,0.99823 l -0.341715,0.41174 0.177419,0.55899 0.177419,0.559 0.572045,0.23068 c 0.778843,0.31407 1.021379,0.31064 1.993358,-0.0282 z m 20.803687,2.01446 c -0.14552,-0.0485 -0.589827,-0.15993 -0.987334,-0.24752 L 64.278284,70.62502 63.30798,69.77308 62.337678,68.92114 61.980213,68.06561 61.62275,67.21008 v -1.57877 -1.57878 l 0.281416,-0.74483 c 0.354436,-0.93809 1.464684,-2.1224 2.496708,-2.66326 l 0.793754,-0.41599 h 1.455204 1.455211 l 0.793744,0.41447 c 1.065694,0.55647 1.873551,1.45779 2.368628,2.64267 l 0.409497,0.98008 v 1.06683 1.06683 h -3.704159 -3.704169 v 0.54952 0.54952 l 0.773397,0.7734 0.773394,0.7734 h 0.831497 c 0.923734,0 1.875878,-0.41771 2.198925,-0.96467 l 0.21158,-0.35825 h 1.316561 1.316564 l -0.394167,0.76223 c -0.21679,0.41923 -0.752147,1.06346 -1.189694,1.43163 l -0.795527,0.6694 -1.343661,0.28816 C 66.583822,71.1704 66.438652,71.182 65.988375,71.0318 Z m 3.034292,-6.94757 C 69.005267,63.12664 67.769583,62.166 66.555232,62.166 h -0.658547 l -0.814047,0.68498 -0.814054,0.68498 v 0.50564 0.50565 h 2.381248 2.381255 z M 10.293582,63.35663 V 55.816 h 1.455208 1.455209 v 6.21771 6.21771 h 3.307293 3.307293 v 1.32291 1.32292 h -4.762501 -4.762502 z m 22.489585,2.24895 v -5.29166 h 1.322917 1.322917 v 0.98219 0.98219 l 0.727604,-0.83924 0.727603,-0.83924 0.992188,-0.1724 0.992187,-0.17239 v 1.22007 1.22007 h -0.911288 -0.911286 l -0.742359,0.63791 -0.742358,0.63792 -0.08717,3.46312 -0.08717,3.46313 h -1.30189 -1.30189 z m 19.380729,0.18688 C 51.10887,62.97334 50.245667,60.58739 50.245667,60.49035 v -0.17643 h 1.40694 1.40694 l 1.149829,3.63802 c 0.632407,2.00091 1.233096,3.73478 1.334866,3.85305 l 0.185036,0.21504 1.235543,-3.85306 1.235541,-3.85305 h 1.439955 1.439955 l -0.761727,2.05052 c -0.41895,1.12778 -1.295019,3.47927 -1.94682,5.22552 l -1.18509,3.175 -1.552255,0.0766 -1.552255,0.0766 z M 73.528993,63.22433 V 55.816 h 1.322921 1.322914 v 7.40833 7.40834 h -1.322914 -1.322921 z"
       style="fill:#f53003;fill-opacity:1;stroke-width:0.0700042"
       id="path3604" />
  </g>
</svg>
