<?xml version="1.0" encoding="UTF-8" standalone="no"?>
<!-- Created with Inkscape (http://www.inkscape.org/) -->

<svg
   width="110.23061mm"
   height="8.1906881mm"
   viewBox="0 0 110.23061 8.1906881"
   version="1.1"
   id="svg5"
   xmlns="http://www.w3.org/2000/svg"
   xmlns:svg="http://www.w3.org/2000/svg">
  <defs
     id="defs2">
    <rect
       x="91.425652"
       y="125.38855"
       width="151.00792"
       height="103.70545"
       id="rect2277" />
  </defs>
  <g
     id="layer1"
     transform="translate(-1.748224,-1.0010848)">
    <text
       xml:space="preserve"
       transform="scale(0.26458333)"
       id="text2275"
       style="font-style:normal;font-variant:normal;font-weight:normal;font-stretch:normal;font-size:40px;line-height:1.25;font-family:SCIMFont;-inkscape-font-specification:SCIMFont;white-space:pre;shape-inside:url(#rect2277);fill:#000000;fill-opacity:1;stroke:none" />
    <g
       aria-label="Laravel SCIM Server"
       id="text4901"
       style="font-size:10.5833px;line-height:0;word-spacing:-2.2569px;stroke-width:0.264583">
      <path
         d="M 1.748224,1.3266453 H 3.7377604 V 7.5381327 H 7.2310761 V 9.0419121 H 1.748224 Z"
         style="font-weight:bold;line-height:1.15;-inkscape-font-specification:'sans-serif Bold';fill:#3451b2;fill-opacity:1"
         id="path41715" />
      <path
         d="m 11.003444,6.4374282 q -0.578775,0 -0.873329,0.1963698 -0.2893874,0.1963698 -0.2893874,0.5787742 0,0.3513986 0.2325434,0.5529361 0.237711,0.1963698 0.656288,0.1963698 0.521931,0 0.878497,-0.3720691 0.356566,-0.3772368 0.356566,-0.9405081 V 6.4374282 Z M 13.830135,5.7397986 V 9.0419121 H 11.964622 V 8.184086 Q 11.592553,8.711184 11.127467,8.9540624 10.66238,9.1917733 9.9957564,9.1917733 9.0965893,9.1917733 8.533318,8.669843 7.9752143,8.142745 7.9752143,7.3055895 q 0,-1.0180225 0.6976296,-1.4934442 0.7027973,-0.4754216 2.2014091,-0.4754216 h 1.090369 V 5.1920301 q 0,-0.4392482 -0.346231,-0.6407857 -0.346231,-0.2067051 -1.080034,-0.2067051 -0.5942769,0 -1.1058719,0.1188555 Q 8.92089,4.5822502 8.4816417,4.819961 V 3.4091989 q 0.5942771,-0.1446936 1.1937218,-0.2170403 0.5994445,-0.077514 1.1988895,-0.077514 1.565791,0 2.258253,0.6201152 0.697629,0.6149476 0.697629,2.0050388 z"
         style="font-weight:bold;line-height:1.15;-inkscape-font-specification:'sans-serif Bold';fill:#3451b2;fill-opacity:1"
         id="path41717" />
      <path
         d="m 19.850421,4.8302963 q -0.242879,-0.1136878 -0.485757,-0.1653641 -0.237711,-0.056844 -0.48059,-0.056844 -0.713132,0 -1.100704,0.4599188 -0.382404,0.4547511 -0.382404,1.3074096 V 9.041912 H 15.550955 V 3.25417 h 1.850011 v 0.9508433 q 0.356566,-0.5684389 0.816485,-0.8268203 0.465086,-0.2635489 1.111039,-0.2635489 0.09302,0 0.201538,0.010335 0.10852,0.00517 0.315225,0.031006 z"
         style="font-weight:bold;line-height:1.15;-inkscape-font-specification:'sans-serif Bold';fill:#3451b2;fill-opacity:1"
         id="path41719" />
      <path
         d="m 23.364408,6.4374282 q -0.578774,0 -0.873329,0.1963698 -0.289387,0.1963698 -0.289387,0.5787742 0,0.3513986 0.232543,0.5529361 0.237711,0.1963698 0.656289,0.1963698 0.52193,0 0.878496,-0.3720691 0.356566,-0.3772368 0.356566,-0.9405081 V 6.4374282 Z M 26.1911,5.7397986 V 9.0419121 H 24.325586 V 8.184086 q -0.372069,0.527098 -0.837155,0.7699764 -0.465086,0.2377109 -1.13171,0.2377109 -0.899167,0 -1.462439,-0.5219303 -0.558103,-0.527098 -0.558103,-1.3642535 0,-1.0180225 0.697629,-1.4934442 0.702797,-0.4754216 2.201409,-0.4754216 h 1.090369 V 5.1920301 q 0,-0.4392482 -0.34623,-0.6407857 -0.346231,-0.2067051 -1.080034,-0.2067051 -0.594278,0 -1.105873,0.1188555 -0.511595,0.1188554 -0.950843,0.3565662 V 3.4091989 q 0.594277,-0.1446936 1.193722,-0.2170403 0.599445,-0.077514 1.198889,-0.077514 1.565791,0 2.258253,0.6201152 0.69763,0.6149476 0.69763,2.0050388 z"
         style="font-weight:bold;line-height:1.15;-inkscape-font-specification:'sans-serif Bold';fill:#3451b2;fill-opacity:1"
         id="path41721" />
      <path
         d="m 27.183283,3.2541701 h 1.85001 l 1.441768,3.9997431 1.4366,-3.9997431 h 1.855178 l -2.278923,5.787742 h -2.030878 z"
         style="font-weight:bold;line-height:1.15;-inkscape-font-specification:'sans-serif Bold';fill:#3451b2;fill-opacity:1"
         id="path41723" />
      <path
         d="m 40.588106,6.1325382 v 0.5270979 h -4.325304 q 0.06718,0.651121 0.470254,0.9766815 0.403075,0.3255605 1.126543,0.3255605 0.583942,0 1.193721,-0.1705317 0.614948,-0.1756993 1.260901,-0.5270979 v 1.426265 q -0.656288,0.248046 -1.312577,0.3720691 -0.656288,0.1291907 -1.312577,0.1291907 -1.570959,0 -2.444287,-0.7958146 -0.868162,-0.8009821 -0.868162,-2.24275 0,-1.4159297 0.852659,-2.2272471 0.857826,-0.8113174 2.356437,-0.8113174 1.364254,0 2.180739,0.8216526 0.821653,0.8216527 0.821653,2.1962414 z M 38.686419,5.5175906 q 0,-0.5270979 -0.310058,-0.8474908 -0.30489,-0.3255605 -0.800982,-0.3255605 -0.537433,0 -0.873329,0.30489 -0.335895,0.2997224 -0.418577,0.8681613 z"
         style="font-weight:bold;line-height:1.15;-inkscape-font-specification:'sans-serif Bold';fill:#3451b2;fill-opacity:1"
         id="path41725" />
      <path
         d="m 41.988532,1.0010848 h 1.850011 v 8.0408273 h -1.850011 z"
         style="font-weight:bold;line-height:1.15;-inkscape-font-specification:'sans-serif Bold';fill:#3451b2;fill-opacity:1"
         id="path41727" />
      <path
         d="m 49.286576,9.1245941 c 0.521931,0.067179 1.136878,-0.036173 1.529618,-0.1912022 C 51.787708,8.5768257 52.294135,7.7655083 52.242459,6.6699714 52.216621,6.0756943 52.077095,5.7191281 51.730864,5.3780647 51.34846,5.0008279 50.909211,4.7889552 49.782669,4.4582271 49.01786,4.2308516 48.759479,4.1223314 48.62512,3.9673026 48.464924,3.7864356 48.418415,3.5177191 48.511432,3.3058464 c 0.09819,-0.2377109 0.279052,-0.3565663 0.630451,-0.4185778 0.516763,-0.08785 1.214392,0.1291907 1.906854,0.5994447 0,0 0.1757,0.124023 0.1757,0.124023 0,0 0.07751,-0.1188554 0.07751,-0.1188554 0,0 0.222208,-0.346231 0.403075,-0.6252828 0,0 0.330728,-0.5064274 0.330728,-0.5064274 0,0 -0.08268,-0.067179 -0.08268,-0.067179 -0.516763,-0.4185778 -1.162716,-0.7079649 -1.844843,-0.8319879 -0.32556,-0.062011 -1.100704,-0.051676 -1.384924,0.010335 -0.821652,0.1860345 -1.441768,0.7183001 -1.689814,1.4521031 -0.09819,0.2893871 -0.124023,1.0541958 -0.04651,1.3797563 0.103352,0.428913 0.341063,0.7854793 0.676959,1.0283578 0.366901,0.2583813 0.702797,0.3927396 1.912022,0.7441382 0.645953,0.1912022 0.992184,0.3772368 1.080034,0.5994447 0.05684,0.1291907 0.05684,0.4185778 0,0.5477685 -0.206705,0.4857569 -1.21956,0.5891094 -2.061883,0.206705 -0.222208,-0.1033525 -0.671792,-0.387572 -0.878497,-0.5632713 0,0 -0.139526,-0.1136878 -0.139526,-0.1136878 0,0 -0.444416,0.5581037 -0.444416,0.5581037 -0.242878,0.3100576 -0.459919,0.5994447 -0.459919,0.5994447 0,0 0.09302,0.1291907 0.242879,0.2480461 0.687294,0.5529361 1.483109,0.8733289 2.37194,0.9508433 0,0 0,0.015503 0,0.015503 z"
         style="line-height:1.15;font-family:SCIMFont;-inkscape-font-specification:SCIMFont;fill:#3451b2;fill-opacity:1"
         id="path41729" />
      <path
         d="m 56.304213,9.0212416 c 0.377237,0.1085201 1.178219,0.041341 1.550288,-0.072347 0.320393,-0.067179 0.558104,-0.1756993 0.780312,-0.3152252 0,0 0.144693,-0.093017 0.144693,-0.093017 0,0 -0.382404,-0.5839418 -0.382404,-0.5839418 C 58.185229,7.63115 57.999195,7.3365952 57.999195,7.3365952 c 0,0 -0.113688,0.010335 -0.113688,0.010335 C 57.255056,7.6001439 56.624606,7.5949763 56.09234,7.3314272 55.78745,7.181566 55.384376,6.7836588 55.219011,6.4736012 54.697081,5.4555787 54.826272,4.2411864 55.544572,3.47121 c 0.558104,-0.5994447 1.338415,-0.7803116 2.13423,-0.4909245 0.124023,0.041341 0.268716,0.093017 0.268716,0.093017 0,0 0.165364,-0.1705317 0.444416,-0.5942771 0,0 0.39274,-0.6046124 0.39274,-0.6046124 0,0 -0.06718,-0.077514 -0.06718,-0.077514 0,0 -0.516763,-0.2997223 -0.769977,-0.3617338 -0.578774,-0.1446936 -1.400426,-0.1343583 -1.994704,0.025838 -1.405594,0.3772368 -2.449455,1.6381377 -2.687165,3.1884257 -0.07235,0.3720691 -0.02067,1.0852016 0.05684,1.4210974 0.320393,1.5606233 1.441768,2.671663 2.945548,2.935212 0,0 0.03617,0.015503 0.03617,0.015503 z"
         style="line-height:1.15;font-family:SCIMFont;-inkscape-font-specification:SCIMFont;fill:#3451b2;fill-opacity:1"
         id="path41731" />
      <path
         d="m 59.632164,9.0264092 c 0.01033,0.010335 0.19637,0.02067 0.41341,0.02067 0.63045,0 0.868161,-0.1033525 1.059363,-0.4547512 0.108521,-0.1963698 0.134359,-0.5012597 0.07751,-0.8216526 0,0 -0.03617,-0.2170403 -0.03617,-0.2170403 0,0 0.07751,-0.067179 0.07751,-0.067179 0.07235,-0.062011 0.139526,-0.1808669 0.139526,-0.2532137 0,-0.015503 -0.03617,-0.067179 -0.07751,-0.1085202 -0.04134,-0.041341 -0.06718,-0.082682 -0.06718,-0.082682 C 61.539016,6.850838 61.559687,6.8043294 61.440831,6.5097747 61.306473,6.1790465 61.363321,6.0550235 61.719883,5.8638213 61.973097,5.729463 62.081617,5.5020874 62.004102,5.2953824 61.988602,5.2592094 61.802565,4.9904924 61.590692,4.6959377 61.042924,3.9466318 61.017086,3.874285 61.187617,3.5642274 61.275467,3.404031 61.285807,3.3575223 61.285807,3.1714878 61.280607,2.9957885 61.249637,2.8717654 61.094605,2.4376848 60.918903,1.92609 60.856891,1.7968993 60.70703,1.5953619 c 0,0 -0.583942,-0.098185 -0.583942,-0.098185 0,0 -0.511595,0 -0.511595,0 0,0 0,3.7568647 0,3.7568647 0,2.061883 0.01034,3.7620322 0.02067,3.7723675 0,0 0,0 0,0 z"
         style="line-height:1.15;font-family:SCIMFont;-inkscape-font-specification:SCIMFont;fill:#3451b2;fill-opacity:1"
         id="path41733" />
      <path
         d="m 63.006624,7.1660636 c 0,0 0,1.8810161 0,1.8810161 0,0 0.377237,0 0.377237,0 0,0 0.377236,0 0.377236,0 0,0 0.377237,0 0.377237,0 0,0 0.372069,0 0.372069,0 0,0 0,-1.2402304 0,-1.2402304 0,0 0,-1.2402304 0,-1.2402304 0,0 0,-1.2350628 0,-1.2350628 0,0 0.0052,-1.2402305 0.0052,-1.2402305 0,0 0.07235,0.1188554 0.07235,0.1188554 0,0 0.07751,0.1240231 0.07751,0.1240231 0,0 0.170532,0.2687166 0.341063,0.5426008 0.170532,0.2790518 0.387572,0.6252828 0.60978,0.9766815 0.217041,0.3513986 0.423746,0.6717914 0.573607,0.9043346 0.149861,0.2325432 0.258381,0.3772368 0.258381,0.3772368 0,0 0.08785,-0.1085202 0.08785,-0.1085202 0,0 0.175699,-0.2583813 0.175699,-0.2583813 0,0 0.19637,-0.3203929 0.372069,-0.5994447 0.170532,-0.2738842 0.377237,-0.6046123 0.573607,-0.9250052 0,0 0.361734,-0.5787742 0.361734,-0.5787742 0,0 0.361734,-0.5839418 0.361734,-0.5839418 0,0 0.0052,1.2402304 0.0052,1.2402304 0,0 0.0052,1.2453981 0.0052,1.2453981 0,0 0.0052,1.2402304 0.0052,1.2402304 0,0 0,1.2402304 0,1.2402304 0,0 0.377236,0 0.377236,0 0,0 0.377237,0 0.377237,0 0,0 0.377237,0 0.377237,0 0,0 0.377237,0 0.377237,0 0,0 0,-1.8810161 0,-1.8810161 0,0 0,-1.8861838 0,-1.8861838 0,0 0,-1.8810162 0,-1.8810162 0,0 0,-1.8810161 0,-1.8810161 0,0 -0.413411,0 -0.413411,0 0,0 -0.408242,0 -0.408242,0 0,0 -0.41341,0 -0.41341,0 0,0 -0.408243,0 -0.408243,0 0,0 -0.449583,0.7648088 -0.449583,0.7648088 0,0 -0.449584,0.7699763 -0.449584,0.7699763 -0.382404,0.651121 -0.60978,1.0335254 -0.744138,1.2453981 -0.134358,0.2118727 -0.191202,0.2377108 -0.191202,0.2377108 0,0 -0.118856,-0.1963698 -0.28422,-0.4754216 -0.160196,-0.2738843 -0.382404,-0.651121 -0.625283,-1.0593635 0,0 -0.43408,-0.7441383 -0.43408,-0.7441383 0,0 -0.434081,-0.7389706 -0.434081,-0.7389706 0,0 -0.41341,0 -0.41341,0 0,0 -0.408242,0 -0.408242,0 0,0 -0.408243,0 -0.408243,0 0,0 -0.41341,0 -0.41341,0 0,0 0,1.8810161 0,1.8810161 0,0 0,1.8810162 0,1.8810162 0,0 0,1.8861838 0,1.8861838 z"
         style="line-height:1.15;font-family:SCIMFont;-inkscape-font-specification:SCIMFont;fill:#3451b2;fill-opacity:1"
         id="path41735" />
      <path
         d="m 79.035212,1.5695238 v 1.63297 Q 78.399594,2.9182743 77.794982,2.7735808 77.19037,2.6288873 76.652936,2.6288873 q -0.713132,0 -1.054195,0.1963698 -0.341064,0.1963698 -0.341064,0.6097799 0,0.3100576 0.227376,0.4857569 0.232543,0.1705317 0.837155,0.2945548 l 0.847491,0.1705317 q 1.286739,0.2583813 1.82934,0.7854792 0.542601,0.527098 0.542601,1.4986118 0,1.2764038 -0.759641,1.9016866 -0.754474,0.6201153 -2.309929,0.6201153 -0.733803,0 -1.472774,-0.139526 Q 74.260325,8.9127214 73.521355,8.6388372 V 6.9593585 q 0.73897,0.3927396 1.426265,0.5942771 0.692462,0.1963698 1.333247,0.1963698 0.651121,0 0.997352,-0.2170403 0.346231,-0.2170404 0.346231,-0.6201153 0,-0.3617338 -0.237711,-0.5581036 -0.232543,-0.1963699 -0.93534,-0.3513987 L 75.681423,5.8328159 Q 74.523874,5.5847698 73.986441,5.042169 73.454175,4.4995681 73.454175,3.5797306 q 0,-1.1523808 0.744139,-1.772496 0.744138,-0.6201152 2.139397,-0.6201152 0.635618,0 1.30741,0.098185 0.671791,0.093017 1.390091,0.2842194 z"
         style="font-weight:bold;line-height:1.15;-inkscape-font-specification:'sans-serif Bold';fill:#3451b2;fill-opacity:1"
         id="path41737" />
      <path
         d="m 86.983019,6.1325382 v 0.5270979 h -4.325304 q 0.06718,0.651121 0.470254,0.9766815 0.403075,0.3255605 1.126543,0.3255605 0.583942,0 1.193722,-0.1705317 0.614947,-0.1756993 1.2609,-0.5270979 v 1.426265 q -0.656288,0.248046 -1.312577,0.3720691 -0.656288,0.1291907 -1.312577,0.1291907 -1.570958,0 -2.444287,-0.7958146 -0.868162,-0.8009821 -0.868162,-2.24275 0,-1.4159297 0.852659,-2.2272471 0.857826,-0.8113174 2.356438,-0.8113174 1.364253,0 2.180738,0.8216526 0.821653,0.8216527 0.821653,2.1962414 z M 85.081332,5.5175906 q 0,-0.5270979 -0.310058,-0.8474908 -0.30489,-0.3255605 -0.800982,-0.3255605 -0.537433,0 -0.873329,0.30489 -0.335895,0.2997224 -0.418577,0.8681613 z"
         style="font-weight:bold;line-height:1.15;-inkscape-font-specification:'sans-serif Bold';fill:#3451b2;fill-opacity:1"
         id="path41739" />
      <path
         d="m 92.682911,4.8302963 q -0.242878,-0.1136878 -0.485757,-0.1653641 -0.237711,-0.056844 -0.480589,-0.056844 -0.713133,0 -1.100705,0.4599188 -0.382404,0.4547511 -0.382404,1.3074096 V 9.041912 h -1.85001 V 3.25417 h 1.85001 v 0.9508433 q 0.356566,-0.5684389 0.816485,-0.8268203 0.465086,-0.2635489 1.11104,-0.2635489 0.09302,0 0.201537,0.010335 0.10852,0.00517 0.315225,0.031006 z"
         style="font-weight:bold;line-height:1.15;-inkscape-font-specification:'sans-serif Bold';fill:#3451b2;fill-opacity:1"
         id="path41741" />
      <path
         d="m 92.874117,3.2541701 h 1.85001 l 1.441768,3.9997431 1.436601,-3.9997431 h 1.85518 l -2.278926,5.787742 h -2.030877 z"
         style="font-weight:bold;line-height:1.15;-inkscape-font-specification:'sans-serif Bold';fill:#3451b2;fill-opacity:1"
         id="path41743" />
      <path
         d="m 106.27893,6.1325382 v 0.5270979 h -4.3253 q 0.0672,0.651121 0.47025,0.9766815 0.40308,0.3255605 1.12655,0.3255605 0.58394,0 1.19372,-0.1705317 0.61495,-0.1756993 1.2609,-0.5270979 v 1.426265 q -0.65629,0.248046 -1.31258,0.3720691 -0.65629,0.1291907 -1.31257,0.1291907 -1.57096,0 -2.44429,-0.7958146 -0.86816,-0.8009821 -0.86816,-2.24275 0,-1.4159297 0.85266,-2.2272471 0.85782,-0.8113174 2.35643,-0.8113174 1.36426,0 2.18074,0.8216526 0.82165,0.8216527 0.82165,2.1962414 z m -1.90168,-0.6149476 q 0,-0.5270979 -0.31006,-0.8474908 -0.30489,-0.3255605 -0.80098,-0.3255605 -0.53744,0 -0.87333,0.30489 -0.3359,0.2997224 -0.41858,0.8681613 z"
         style="font-weight:bold;line-height:1.15;-inkscape-font-specification:'sans-serif Bold';fill:#3451b2;fill-opacity:1"
         id="path41745" />
      <path
         d="m 111.97883,4.8302963 q -0.24288,-0.1136878 -0.48576,-0.1653641 -0.23771,-0.056844 -0.48059,-0.056844 -0.71313,0 -1.1007,0.4599188 -0.38241,0.4547511 -0.38241,1.3074096 V 9.041912 h -1.85001 V 3.25417 h 1.85001 v 0.9508433 q 0.35657,-0.5684389 0.81649,-0.8268203 0.46508,-0.2635489 1.11104,-0.2635489 0.093,0 0.20153,0.010335 0.10852,0.00517 0.31523,0.031006 z"
         style="font-weight:bold;line-height:1.15;-inkscape-font-specification:'sans-serif Bold';fill:#3451b2;fill-opacity:1"
         id="path41747" />
    </g>
  </g>
</svg>
